<svg width="26" height="26" viewBox="0 0 26 26" fill="none" xmlns="http://www.w3.org/2000/svg">
<path fill-rule="evenodd" clip-rule="evenodd" d="M12.0288 18.6481C11.6587 19.0753 11.0143 19.1198 10.5897 18.7473L4.34972 13.2736C4.12753 13.0787 4 12.7966 4 12.5C4 12.2034 4.12753 11.9213 4.34972 11.7264L10.5897 6.25272C11.0143 5.88025 11.6587 5.92465 12.0288 6.3519C12.399 6.77915 12.3549 7.42746 11.9303 7.79994L7.74219 11.4737L19.98 11.4737C20.5433 11.4737 21 11.9332 21 12.5C21 13.0668 20.5433 13.5263 19.98 13.5263L7.74219 13.5263L11.9303 17.2001C12.3549 17.5725 12.399 18.2208 12.0288 18.6481Z" fill="#5537FB"/>
</svg>
