<svg width="236" height="37" viewBox="0 0 236 37" fill="none" xmlns="http://www.w3.org/2000/svg">
<path d="M256 38.15C222.701 32.2124 169.138 35.2255 138.543 91.3219C99.4345 163.029 28.6682 143.298 1 130.27" stroke="white" stroke-opacity="0.2"/>
<path d="M259 31.15C225.57 25.2124 171.797 28.2255 141.082 84.3219C101.82 156.029 30.7767 136.298 3 123.27" stroke="white" stroke-opacity="0.2"/>
<path d="M262 24.1701C228.57 18.177 174.797 21.2182 144.082 77.839C104.82 150.216 33.7767 130.3 6 117.151" stroke="white" stroke-opacity="0.2"/>
<path d="M265 17.1701C231.57 11.177 177.797 14.2182 147.082 70.839C107.82 143.216 36.7767 123.3 9 110.151" stroke="white" stroke-opacity="0.2"/>
<path d="M268 10.1701C234.57 4.17704 180.797 7.21824 150.082 63.839C110.82 136.216 39.7767 116.3 12 103.151" stroke="white" stroke-opacity="0.2"/>
<path d="M271 3.17007C237.57 -2.82296 183.797 0.218244 153.082 56.839C113.82 129.216 42.7767 109.3 15 96.1515" stroke="white" stroke-opacity="0.2"/>
</svg>
