<svg width="205" height="35" viewBox="0 0 205 35" fill="none" xmlns="http://www.w3.org/2000/svg">
<path d="M189 -70.85C155.701 -76.7876 102.138 -73.7745 71.543 -17.6781C32.4345 54.0289 -38.3318 34.2976 -66 21.2704" stroke="white" stroke-opacity="0.2"/>
<path d="M192 -77.85C158.57 -83.7876 104.797 -80.7745 74.0824 -24.6781C34.8205 47.0289 -36.2233 27.2976 -64 14.2704" stroke="white" stroke-opacity="0.2"/>
<path d="M195 -84.8299C161.57 -90.823 107.797 -87.7818 77.0824 -31.161C37.8205 41.2161 -33.2233 21.3003 -61 8.15146" stroke="white" stroke-opacity="0.2"/>
<path d="M198 -91.8299C164.57 -97.823 110.797 -94.7818 80.0824 -38.161C40.8205 34.2161 -30.2233 14.3003 -58 1.15146" stroke="white" stroke-opacity="0.2"/>
<path d="M201 -98.8299C167.57 -104.823 113.797 -101.782 83.0824 -45.161C43.8205 27.2161 -27.2233 7.30034 -55 -5.84854" stroke="white" stroke-opacity="0.2"/>
<path d="M204 -105.83C170.57 -111.823 116.797 -108.782 86.0824 -52.161C46.8205 20.2161 -24.2233 0.300345 -52 -12.8485" stroke="white" stroke-opacity="0.2"/>
</svg>
