<svg width="40" height="40" viewBox="0 0 40 40" fill="none" xmlns="http://www.w3.org/2000/svg">
<rect x="12.7999" y="9.59998" width="14.4" height="1.6" fill="#5537FB"/>
<path d="M26.4 8.79993H29.6C30.4836 8.79993 31.2 9.51627 31.2 10.3999C31.2 11.2836 30.4836 11.9999 29.6 11.9999H26.4V8.79993Z" fill="#5537FB"/>
<path d="M13.5999 8.79993H10.3999C9.51626 8.79993 8.79991 9.51627 8.79991 10.3999C8.79991 11.2836 9.51626 11.9999 10.3999 11.9999H13.5999V8.79993Z" fill="#5537FB"/>
<circle cx="20" cy="10.4" r="4.8" fill="#5537FB"/>
<circle cx="19.9999" cy="10.4" r="3.2" fill="#FAF9FF"/>
<rect x="18.4" y="14.4" width="3.2" height="2.4" fill="#5537FB"/>
<path d="M13.864 20.4674C14.1362 17.9267 16.2803 16 18.8356 16H21.164C23.7193 16 25.8633 17.9266 26.1356 20.4673L26.6071 24.8673C26.9237 27.8226 24.6078 30.4 21.6355 30.4H18.3642C15.392 30.4 13.076 27.8227 13.3926 24.8674L13.864 20.4674Z" fill="#5537FB"/>
<rect x="16.7999" y="24.7999" width="6.4" height="10.4" rx="3.2" fill="#FAF9FF"/>
<rect x="18.4" y="17.6" width="3.2" height="1.6" rx="0.8" fill="#FAF9FF"/>
<rect x="17.5999" y="25.6" width="4.8" height="9.6" rx="2.4" fill="#5537FB"/>
</svg>
