<svg width="40" height="40" viewBox="0 0 40 40" fill="none" xmlns="http://www.w3.org/2000/svg">
<path d="M9.52281 9.20693C10.0447 7.53703 11.5912 6.40002 13.3407 6.40002H26.6592C28.4087 6.40002 29.9553 7.53702 30.4771 9.20692L31.9771 14.0069C32.782 16.5826 30.8578 19.2 28.1592 19.2H11.8407C9.14216 19.2 7.21789 16.5826 8.02281 14.0069L9.52281 9.20693Z" fill="#5537FB"/>
<path d="M11.7712 10.7856C12.2998 9.12652 13.8411 8 15.5824 8H24.4175C26.1588 8 27.7 9.12651 28.2287 10.7856L28.7385 12.3856C29.5606 14.9657 27.6352 17.6 24.9273 17.6H15.0726C12.3647 17.6 10.4393 14.9657 11.2614 12.3856L11.7712 10.7856Z" fill="#FAF9FF"/>
<rect x="4.79993" y="14.4" width="30.4" height="11.2" rx="3" fill="#5537FB"/>
<rect x="6.39996" y="21.6" width="4.8" height="9.6" rx="2" fill="#5537FB"/>
<rect x="28.7999" y="21.6" width="4.8" height="9.6" rx="2" fill="#5537FB"/>
<circle cx="11.1999" cy="20" r="2.4" fill="#FAF9FF"/>
<circle cx="28.8" cy="20" r="2.4" fill="#FAF9FF"/>
</svg>
