<svg width="35" height="35" viewBox="0 0 35 35" fill="none" xmlns="http://www.w3.org/2000/svg">
<path d="M15.3125 30.4792C9.11458 29.3854 4.375 23.9896 4.375 17.5C4.375 10.2813 10.2813 4.375 17.5 4.375C24.7188 4.375 30.625 10.2813 30.625 17.5C30.625 23.9896 25.8854 29.3854 19.6875 30.4792L18.9583 29.8958H16.0417L15.3125 30.4792Z" fill="url(#paint0_linear)"/>
<path d="M22.6042 21.1459L23.1875 17.5H19.6875V14.9479C19.6875 13.9271 20.0521 13.125 21.6563 13.125H23.3333V9.77085C22.3854 9.62502 21.3646 9.47919 20.4167 9.47919C17.4271 9.47919 15.3125 11.3021 15.3125 14.5834V17.5H12.0312V21.1459H15.3125V30.4063C16.0417 30.5521 16.7708 30.625 17.5 30.625C18.2292 30.625 18.9583 30.5521 19.6875 30.4063V21.1459H22.6042Z" fill="white"/>
<defs>
<linearGradient id="paint0_linear" x1="17.5" y1="29.7165" x2="17.5" y2="4.375" gradientUnits="userSpaceOnUse">
<stop stop-color="#0062E0"/>
<stop offset="1" stop-color="#19AFFF"/>
</linearGradient>
</defs>
</svg>
