<svg width="20" height="20" viewBox="0 0 20 20" fill="none" xmlns="http://www.w3.org/2000/svg">
<path d="M19.9894 10.1871C19.9894 9.36767 19.9214 8.76973 19.7741 8.14966H10.1992V11.848H15.8195C15.7062 12.7671 15.0943 14.1512 13.7345 15.0813L13.7155 15.2051L16.7429 17.4969L16.9526 17.5174C18.8789 15.7789 19.9894 13.221 19.9894 10.1871Z" fill="#4285F4"/>
<path d="M10.1993 19.9313C12.9528 19.9313 15.2643 19.0454 16.9528 17.5174L13.7346 15.0813C12.8735 15.6682 11.7176 16.0779 10.1993 16.0779C7.50244 16.0779 5.21352 14.3395 4.39759 11.9366L4.27799 11.9466L1.13002 14.3273L1.08885 14.4391C2.76587 17.6945 6.21061 19.9313 10.1993 19.9313Z" fill="#34A853"/>
<path d="M4.3983 11.9366C4.18301 11.3166 4.05841 10.6521 4.05841 9.96565C4.05841 9.27909 4.18301 8.61473 4.38697 7.99466L4.38127 7.8626L1.19387 5.44366L1.08958 5.49214C0.3984 6.84305 0.00180054 8.36008 0.00180054 9.96565C0.00180054 11.5712 0.3984 13.0882 1.08958 14.4391L4.3983 11.9366Z" fill="#FBBC05"/>
<path d="M10.1992 3.85336C12.1142 3.85336 13.4059 4.66168 14.1425 5.33718L17.0206 2.59107C15.253 0.985496 12.9527 0 10.1992 0C6.21059 0 2.76587 2.23672 1.08885 5.49214L4.38625 7.99466C5.2135 5.59183 7.50241 3.85336 10.1992 3.85336Z" fill="#EB4335"/>
</svg>
