<svg width="45" height="45" viewBox="0 0 45 45" fill="none" xmlns="http://www.w3.org/2000/svg">
<ellipse cx="22.5" cy="22.5" rx="7.2" ry="9" fill="#5537FB"/>
<path d="M2.70007 27.4006C2.70007 27.1666 2.86264 26.9639 3.09114 26.9131L17.6831 23.6705C18.3077 23.5317 18.9001 24.0069 18.9001 24.6466V26.9C18.9001 27.4523 18.4524 27.9 17.9001 27.9H3.19947C2.92366 27.9 2.70007 27.6764 2.70007 27.4006Z" fill="#5537FB"/>
<path d="M42.3 27.4006C42.3 27.1666 42.1375 26.9639 41.909 26.9131L27.317 23.6705C26.6925 23.5317 26.1 24.0069 26.1 24.6466V26.9C26.1 27.4523 26.5478 27.9 27.1 27.9H41.8007C42.0765 27.9 42.3 27.6764 42.3 27.4006Z" fill="#5537FB"/>
<circle cx="9.00005" cy="31.5" r="2.7" fill="#5537FB"/>
<circle cx="36" cy="31.5" r="2.7" fill="#5537FB"/>
<circle cx="9.00004" cy="31.5" r="0.9" fill="#FAF9FF"/>
<circle cx="36" cy="31.5" r="0.9" fill="#FAF9FF"/>
<rect x="8.10004" y="27.9" width="1.8" height="1.8" fill="#5537FB"/>
<rect x="35.1" y="27.9" width="1.8" height="1.8" fill="#5537FB"/>
<rect x="21.6" y="16.2" width="7.2" height="1.8" rx="0.9" transform="rotate(-90 21.6 16.2)" fill="#5537FB"/>
<rect x="10.8" y="20.7" width="23.4" height="1.8" rx="0.9" fill="#5537FB"/>
<path d="M17.55 19.8H21.6V22.05L17.1 20.7L17.55 19.8Z" fill="#FAF9FF"/>
<path d="M27.4501 19.8H23.4001V22.05L27.9001 20.7L27.4501 19.8Z" fill="#FAF9FF"/>
</svg>
