<svg width="30" height="30" viewBox="0 0 30 30" fill="none" xmlns="http://www.w3.org/2000/svg">
<path d="M18.2599 24.6133C18.6307 24.9152 18.6894 25.4641 18.3912 25.8394C18.1707 26.1168 17.9159 26.3652 17.6459 26.5688C16.7364 27.2825 15.58 27.6061 14.4316 27.4693C13.2822 27.3324 12.2338 26.7453 11.5182 25.8362C11.2217 25.4595 11.2831 24.9108 11.6552 24.6107C12.0274 24.3106 12.5694 24.3726 12.8659 24.7493C13.2974 25.2976 13.9334 25.6537 14.633 25.737C15.3336 25.8205 16.0384 25.6233 16.6032 25.1803C16.7697 25.0547 16.9194 24.9087 17.0486 24.7461C17.3469 24.3708 17.8892 24.3114 18.2599 24.6133ZM6.44016 11.2497L6.45555 10.5049C6.46655 10.1863 6.48358 9.8906 6.50856 9.6012C6.88318 5.5557 10.7446 2.5 14.956 2.5H15.0451C19.2543 2.5 23.1168 5.55357 23.5042 9.60671C23.5264 9.86435 23.536 10.0932 23.5389 10.4151L23.54 11.3998C23.5409 11.4895 23.5424 11.5684 23.5447 11.6419L23.5563 11.8872L23.612 12.1211C23.7879 12.7725 24.097 13.3816 24.5203 13.9103L24.7087 14.1318L24.7858 14.2308C25.2935 14.9896 25.5835 15.8725 25.625 16.8234L25.6238 17.3275C25.5883 18.4537 25.1749 19.5414 24.4173 20.4477C23.4139 21.5126 22.0542 22.1742 20.6092 22.3072C16.8775 22.7124 13.1125 22.7124 9.3912 22.3082C7.9362 22.1683 6.58055 21.5087 5.53329 20.4029C4.76102 19.4614 4.35052 18.276 4.37613 17.078L4.37719 16.7802C4.4218 15.8694 4.71005 14.9873 5.2117 14.2252L5.29567 14.1172C5.88156 13.4749 6.28211 12.6888 6.45591 11.8413L6.43711 11.9174L6.44016 11.2497ZM15.0451 4.24419H14.956C11.5831 4.24419 8.51004 6.67608 8.22459 9.75847C8.20998 9.92785 8.19832 10.1026 8.18922 10.2865L8.16915 10.8695L8.16099 12.0186L8.14301 12.1958C7.90555 13.3538 7.35911 14.4262 6.56162 15.3005L6.6232 15.2291L6.51306 15.4114C6.30673 15.7831 6.17362 16.1869 6.12103 16.5853L6.09919 16.8234L6.09899 17.0968C6.0821 17.8928 6.35108 18.6695 6.81711 19.2413C7.53602 19.9981 8.50853 20.4713 9.5646 20.5729C13.1741 20.9649 16.8159 20.9649 20.4392 20.5715C21.4838 20.4753 22.4557 20.0025 23.1355 19.2833C23.6499 18.6663 23.9218 17.8871 23.9019 17.067L23.903 16.8627C23.8766 16.2732 23.6888 15.7016 23.3592 15.209L23.3782 15.2407L23.2059 15.0386C22.6117 14.3051 22.18 13.4544 21.9396 12.5425L21.8585 12.1977L21.8424 12.0819C21.8302 11.9127 21.8232 11.7623 21.8194 11.5814L21.816 10.4506C21.8137 10.1631 21.8059 9.96948 21.7884 9.76658C21.493 6.67594 18.417 4.24419 15.0451 4.24419Z" fill="#333333"/>
</svg>
