<svg width="30" height="30" viewBox="0 0 30 30" fill="none" xmlns="http://www.w3.org/2000/svg">
<path d="M15.7701 2.5C16.6564 2.49964 17.5051 2.85077 18.1228 3.47339C18.7406 4.09601 19.0748 4.9371 19.0479 5.72207L19.0585 5.90669C19.0801 6.08849 19.1405 6.26395 19.2385 6.42568C19.4294 6.74459 19.7419 6.97601 20.1071 7.06892C20.4723 7.16183 20.8603 7.10859 21.2277 6.89798L21.4325 6.79437C22.9699 6.08622 24.8139 6.64898 25.6667 8.0991L26.4331 9.40217C26.4533 9.43652 26.4711 9.47202 26.4865 9.50843L26.5576 9.64802C27.2431 11.0815 26.7554 12.7866 25.453 13.6528L25.1314 13.8509C24.9633 13.9657 24.8231 14.1157 24.7177 14.296C24.5273 14.6161 24.4751 14.9974 24.5725 15.3555C24.6699 15.7135 24.909 16.0187 25.2717 16.2241L25.4804 16.3551C26.1108 16.7871 26.5662 17.4239 26.7649 18.1537C26.989 18.9772 26.8688 19.8542 26.4249 20.6005L25.6004 21.9463L25.4761 22.1361C24.5073 23.501 22.6263 23.918 21.1909 23.1062L21.0208 23.0203C20.8433 22.9426 20.6518 22.8998 20.4775 22.8951C20.0983 22.8933 19.7341 23.0401 19.4659 23.3028C19.1978 23.5655 19.0479 23.9223 19.0489 24.3372L19.0388 24.5518C18.9 26.2129 17.4806 27.5 15.7705 27.5H14.2263C12.4152 27.5 10.9471 26.0616 10.9489 24.3442L10.9383 24.1596C10.9167 23.9778 10.8563 23.8023 10.7534 23.6322C10.5667 23.3125 10.2574 23.0791 9.89422 22.9838C9.53105 22.8886 9.14411 22.9395 8.76956 23.1516L8.54703 23.2605C7.84325 23.5706 7.04941 23.6279 6.30556 23.4208C5.46633 23.1871 4.75674 22.6354 4.34266 21.903L3.54599 20.5552L3.43996 20.3555C2.71447 18.8552 3.28314 17.0515 4.72644 16.2343L4.85807 16.1536C5.24364 15.8921 5.47483 15.461 5.47483 15C5.47483 14.4987 5.20186 14.0355 4.72435 13.7644L4.53061 13.6426C3.13751 12.6935 2.71187 10.8506 3.57487 9.38369L4.38647 8.07707C5.2891 6.5422 7.28944 6.01271 8.82794 6.87714L8.99448 6.96412C9.16427 7.04047 9.34869 7.081 9.52627 7.08285C10.3093 7.08293 10.9472 6.4669 10.9591 5.67726L10.9697 5.43476C11.0338 4.68395 11.3663 3.97838 11.9099 3.44322C12.5233 2.83944 13.3569 2.5 14.2263 2.5H15.7701ZM15.7705 4.30967H14.2263C13.8483 4.30967 13.4858 4.45726 13.2192 4.71978C12.9828 4.95245 12.8382 5.25926 12.8129 5.54576L12.7961 5.92688C12.6667 7.58859 11.2496 8.8927 9.51658 8.89248C9.06985 8.88793 8.62944 8.79116 8.18033 8.58782L7.93988 8.46357C7.25475 8.07894 6.38113 8.31019 5.97572 8.99906L5.1641 10.3057C4.79221 10.9381 4.97821 11.7433 5.55405 12.1366L5.87994 12.3388C6.77746 12.9333 7.32193 13.9287 7.32193 15C7.32193 16.0557 6.79266 17.0425 5.87774 17.662L5.68298 17.782C5.04192 18.1454 4.79453 18.93 5.09248 19.5479L5.16284 19.6811L5.9494 21.0105C6.1341 21.337 6.44401 21.578 6.81053 21.6801C7.13539 21.7705 7.48211 21.7455 7.7526 21.6273L7.8885 21.5621C8.63869 21.1332 9.53267 21.0157 10.3717 21.2357C11.2108 21.4557 11.9254 21.9949 12.3492 22.7211C12.5772 23.0975 12.7215 23.5165 12.7774 23.9981L12.8026 24.4401C12.8803 25.1431 13.4881 25.6903 14.2263 25.6903H15.7705C16.5171 25.6903 17.1373 25.1279 17.1956 24.4389L17.2027 24.3026C17.1985 23.4481 17.5431 22.6274 18.1598 22.0231C18.7765 21.4189 19.6142 21.0813 20.5066 21.0857C20.9445 21.0972 21.3755 21.1933 21.816 21.3875L22.2109 21.5852C22.8308 21.8518 23.5662 21.6573 23.9389 21.1334L24.0295 20.9946L24.8349 19.6795C25.0253 19.3593 25.0776 18.978 24.9801 18.62C24.8938 18.3027 24.6958 18.0258 24.4557 17.8602L24.1153 17.6494C23.4645 17.2185 22.9915 16.5703 22.7878 15.8217C22.5637 14.9983 22.6838 14.1213 23.1183 13.3908C23.3561 12.9839 23.683 12.6342 24.1091 12.3442L24.31 12.2202C24.9501 11.8534 25.1973 11.0688 24.9015 10.4485L24.8131 10.2816L24.7973 10.2466L24.0663 9.00261C23.7205 8.41469 23.0011 8.16066 22.3906 8.36137L22.2519 8.41582L22.1229 8.48019C21.3752 8.91176 20.4829 9.0342 19.6429 8.82051C18.8029 8.60683 18.0841 8.07456 17.6476 7.3452C17.4196 6.9688 17.2753 6.5498 17.2195 6.06818L17.2031 5.75311C17.2142 5.37404 17.0682 5.00671 16.7984 4.73479C16.5286 4.46287 16.158 4.30967 15.7705 4.30967ZM15.0041 10.9148C17.3069 10.9148 19.1737 12.7438 19.1737 15C19.1737 17.2562 17.3069 19.0852 15.0041 19.0852C12.7012 19.0852 10.8344 17.2562 10.8344 15C10.8344 12.7438 12.7012 10.9148 15.0041 10.9148ZM15.0041 12.7244C13.7213 12.7244 12.6814 13.7432 12.6814 15C12.6814 16.2568 13.7213 17.2756 15.0041 17.2756C16.2868 17.2756 17.3267 16.2568 17.3267 15C17.3267 13.7432 16.2868 12.7244 15.0041 12.7244Z" fill="#5537FB"/>
</svg>
