<svg width="26" height="26" viewBox="0 0 26 26" fill="none" xmlns="http://www.w3.org/2000/svg">
<path d="M12.6702 3.16748C10.1001 3.16748 8.01662 5.23394 8.01662 7.78305C8.01662 10.3322 10.1001 12.3986 12.6702 12.3986C15.2403 12.3986 17.3237 10.3322 17.3237 7.78305C17.3237 5.23394 15.2403 3.16748 12.6702 3.16748Z" fill="#5537FB"/>
<path d="M15.4164 14.452C13.5971 14.1641 11.7433 14.1641 9.92396 14.452L9.72895 14.4829C7.16548 14.8887 5.27924 17.0818 5.27924 19.6565C5.27924 21.0462 6.41508 22.1728 7.81621 22.1728H17.5241C18.9253 22.1728 20.0611 21.0462 20.0611 19.6565C20.0611 17.0818 18.1749 14.8887 15.6114 14.4829L15.4164 14.452Z" fill="#5537FB"/>
</svg>
