<svg width="40" height="40" viewBox="0 0 40 40" fill="none" xmlns="http://www.w3.org/2000/svg">
<rect x="7.20013" y="5.59998" width="25.6" height="19.2" rx="5" fill="#5537FB"/>
<path d="M10.496 14.8415C10.6815 12.7796 12.4097 11.2 14.4799 11.2H25.5203C27.5905 11.2 29.3187 12.7796 29.5042 14.8415L30.008 20.4415C30.2186 22.7827 28.3747 24.8 26.0241 24.8H13.9761C11.6255 24.8 9.78158 22.7827 9.9922 20.4415L10.496 14.8415Z" fill="#FAF9FF"/>
<path d="M11.1884 15.6252C11.3818 13.5703 13.1068 12 15.1708 12H24.8295C26.8935 12 28.6185 13.5703 28.8119 15.6252L29.1884 19.6252C29.4093 21.972 27.5632 24 25.206 24H14.7943C12.4371 24 10.591 21.972 10.8119 19.6252L11.1884 15.6252Z" fill="#5537FB"/>
<path d="M13.118 17.3487C13.2507 15.2413 14.9985 13.6 17.1101 13.6H22.8901C25.0017 13.6 26.7496 15.2413 26.8822 17.3487L26.9325 18.1487C27.0775 20.4521 25.2484 22.4 22.9404 22.4H17.0598C14.7518 22.4 12.9227 20.4521 13.0677 18.1487L13.118 17.3487Z" fill="#FAF9FF"/>
<rect x="6.40015" y="20" width="27.2" height="9.6" rx="4" fill="#5537FB"/>
<rect x="8.00012" y="26.4" width="3.2" height="7.2" rx="1" fill="#5537FB"/>
<rect x="28.8001" y="26.4" width="3.2" height="7.2" rx="1" fill="#5537FB"/>
<circle cx="11.2001" cy="24.8" r="2.4" fill="#FAF9FF"/>
<circle cx="28.8001" cy="24.8" r="2.4" fill="#FAF9FF"/>
</svg>
